<svg id="espectro" xmlns="http://www.w3.org/2000/svg" width="799" height="98" viewBox="0 0 799 98">
  <defs>
    <style>
      .cls-1 {
        fill: #bbbab8;
        fill-rule: evenodd;
      }
    </style>
  </defs>
  <path id="_Compound_Path_" data-name="&lt;Compound Path&gt;" class="cls-1" d="M51.418,95.206L0.194,95.2,0.28,3.482,51.5,3.49,51.5,13.4,11.612,13.4,11.587,40.541,51.47,40.547l-0.009,9.42-39.883-.006L11.545,85.284l39.883,0.006Z"/>
  <path id="_Compound_Path_2" data-name="&lt;Compound Path&gt;" class="cls-1" d="M143.6,19.489l-10.071,4.583a15.186,15.186,0,0,0-6.744-9.235A20.834,20.834,0,0,0,115.062,11.3a18.2,18.2,0,0,0-8.283,1.8,13.988,13.988,0,0,0-5.867,5.886A16.263,16.263,0,0,0,99.377,25.8q-0.008,8.3,8.016,12.52L131.594,47a25.134,25.134,0,0,1,10.12,9.708,25.817,25.817,0,0,1,3.493,13.044,27.088,27.088,0,0,1-2.5,11.374,27.648,27.648,0,0,1-7.464,9.643,34.806,34.806,0,0,1-20.01,6.054A35.478,35.478,0,0,1,97.02,91.987a23.938,23.938,0,0,1-6.81-7.252,47.9,47.9,0,0,1-4.259-10.475l10.327-5.078A16.832,16.832,0,0,0,102,82.2,19.427,19.427,0,0,0,115.5,87.4a20.382,20.382,0,0,0,6.054-.925,19.838,19.838,0,0,0,5.863-3.025,14.848,14.848,0,0,0,4.594-5.678,17.2,17.2,0,0,0,1.726-7.534q0.006-5.924-2.73-8.766a25.827,25.827,0,0,0-4.33-3.828,59.684,59.684,0,0,0-6.432-3.087l-16.3-5.585a30.8,30.8,0,0,1-11.717-9.109A20.775,20.775,0,0,1,87.781,26.79a42.348,42.348,0,0,1,.962-6.754q0.961-4.9,6.063-10.347A20.688,20.688,0,0,1,105.96,3.061a57.089,57.089,0,0,1,10.768-1.176,31.852,31.852,0,0,1,3.185.124q1.146,0.125,5.925,1.055t10.189,5.393A23.622,23.622,0,0,1,143.6,19.489Z"/>
  <path id="_Compound_Path_3" data-name="&lt;Compound Path&gt;" class="cls-1" d="M454.53,91.167a80.169,80.169,0,0,1-13.449,4.211,64.653,64.653,0,0,1-13.825,1.486,56.671,56.671,0,0,1-18.727-3.1,50.266,50.266,0,0,1-16.3-9.423q-15.022-14.874-15-35.077,0.012-13.136,5.946-22.556t11.608-14.438a37.875,37.875,0,0,1,10.838-7.064,61.069,61.069,0,0,1,8.412-2.788A58.526,58.526,0,0,1,420.658,1.3a59.8,59.8,0,0,1,6.56-.371,65.336,65.336,0,0,1,9.938.808A86.071,86.071,0,0,1,447.6,4.034l7.006,3.1L454.6,19.281A44.758,44.758,0,0,0,428.612,11.1a42.508,42.508,0,0,0-17.844,3.777A37.576,37.576,0,0,0,396.487,26.46a40.106,40.106,0,0,0-5.3,10.783,39.158,39.158,0,0,0-1.857,11.9,38.391,38.391,0,0,0,5.395,19.769,34.541,34.541,0,0,0,14.9,13.884,43.452,43.452,0,0,0,19.3,4.651,36,36,0,0,0,18.989-5.079l6.631-4.089Z"/>
  <path id="_Compound_Path_4" data-name="&lt;Compound Path&gt;" class="cls-1" d="M561.379,13.224l-27.14,0-0.077,82.049-11.724,0,0.077-82.049-27.139,0,0.009-9.667,66,0.01Z"/>
  <path id="_Compound_Path_5" data-name="&lt;Compound Path&gt;" class="cls-1" d="M664.751,94.74l-15.324.02L614.047,47.9,614,94.755l-11.849,0,0.087-91.716,34.913,0.377a20.823,20.823,0,0,1,16.5,7.437,25.529,25.529,0,0,1,6.419,17.23,25.083,25.083,0,0,1-1.855,9.667,22.519,22.519,0,0,1-6.054,8.181,29.871,29.871,0,0,1-10.315,5.327l-12.473-.025ZM638.926,14.073a29.005,29.005,0,0,0-3.5-1.055,14.906,14.906,0,0,0-3.374-.433l-17.969,0-0.029,30.737,21.026,0q6.117,0,9.5-4.151a15.507,15.507,0,0,0,3.388-10.1,18.183,18.183,0,0,0-2.284-9.049A13.423,13.423,0,0,0,638.926,14.073Z"/>
  <g id="_Group_" data-name="&lt;Group&gt;">
    <g id="_Group_2" data-name="&lt;Group&gt;">
      <path id="_Path_" data-name="&lt;Path&gt;" class="cls-1" d="M786.167,40.142a37.941,37.941,0,0,1,.908,8.382,37.655,37.655,0,0,1-11.239,27.311,36.957,36.957,0,0,1-27.407,11.415q-16.563,0-28.212-10.866a34.952,34.952,0,0,1-11.634-26.629A37.779,37.779,0,0,1,719.822,22.32a36.942,36.942,0,0,1,27.4-11.418,41.92,41.92,0,0,1,14.851,2.587l9.016-7.217A53.62,53.62,0,0,0,747.235.986a49.219,49.219,0,0,0-35.627,14.33A46.67,46.67,0,0,0,696.859,50q-0.019,20.109,15.195,33.945t36.365,13.842a49.215,49.215,0,0,0,35.627-14.326A46.673,46.673,0,0,0,798.8,48.774a45.341,45.341,0,0,0-2.91-16.416Z"/>
    </g>
  </g>
  <g id="_Group_3" data-name="&lt;Group&gt;">
    <g id="_Group_4" data-name="&lt;Group&gt;">
      <g id="_Group_5" data-name="&lt;Group&gt;">
        <path id="_Path_2" data-name="&lt;Path&gt;" class="cls-1" d="M336.45,12.894l0.009-9.372-51.223-.008-0.009,9.372Z"/>
        <path id="_Path_3" data-name="&lt;Path&gt;" class="cls-1" d="M336.415,50l0.009-9.42-30.465,0h-9.417l-11.341,0L285.149,95.23l51.223,0.008,0.009-9.915L296.5,85.317l0.033-35.324Z"/>
      </g>
    </g>
  </g>
  <g id="_Group_6" data-name="&lt;Group&gt;">
    <g id="_Group_7" data-name="&lt;Group&gt;">
      <path id="_Path_4" data-name="&lt;Path&gt;" class="cls-1" d="M235.705,10.99a29.8,29.8,0,0,0-16.877-7.111L188.253,3.5l-0.087,91.716h11.592l0.039-41.4,0.008-9.172L199.82,29V28.973l0.015-15.678,15.291,0a36.214,36.214,0,0,1,6.241,1.482,13.926,13.926,0,0,1,7.008,5.557,15.4,15.4,0,0,1,2.285,8.273,16.857,16.857,0,0,1-3.195,9.937,15.7,15.7,0,0,1-8.676,6.109h-3.435l-0.009,9.172h4.142q10.3-.986,16.649-7.847a23.463,23.463,0,0,0,6.372-16.505c0-.658,0-1.731,0-3.215A19.408,19.408,0,0,0,235.705,10.99Z"/>
    </g>
  </g>
</svg>
